<svg class="lds-gear" width="200px"  height="200px"  xmlns="http://www.w3.org/2000/svg" xmlns:xlink="http://www.w3.org/1999/xlink" viewBox="0 0 100 100" preserveAspectRatio="xMidYMid" style="background: none;"><g transform="translate(50 50)">
<g transform="rotate(173.95)">
<animateTransform attributeName="transform" type="rotate" values="0;360" keyTimes="0;1" dur="3s" repeatCount="indefinite"></animateTransform><path d="M37.43995192304605 -6.5 L47.43995192304605 -6.5 L47.43995192304605 6.5 L37.43995192304605 6.5 A38 38 0 0 1 36.17213164871211 11.643749052098288 L36.17213164871211 11.643749052098288 L45.026691905244206 16.290980772535974 L38.98529066867522 27.801909106027704 L30.130730412143116 23.15467738559002 A38 38 0 0 1 26.61771193510058 27.12005551874856 L26.61771193510058 27.12005551874856 L32.29835940241214 35.34989417768512 L21.5995691457946 42.734735885190155 L15.918921678483041 34.50489722625359 A38 38 0 0 1 10.965495195360225 36.38348409815272 L10.965495195360225 36.38348409815272 L12.170861997913457 46.31057283913326 L-0.7343533653612406 47.877549682452454 L-1.9397201679144729 37.95046094147192 A38 38 0 0 1 -7.19878434509451 37.31189493918558 L-7.19878434509451 37.31189493918558 L-10.744833215519867 46.662057366039726 L-22.900044370430265 42.05219383448676 L-19.35399550000491 32.70203140763261 A38 38 0 0 1 -23.713909146844077 29.692600306730036 L-23.713909146844077 29.692600306730036 L-31.199016628555086 36.32382688913799 L-39.81961118568543 26.593187162913683 L-32.33450370397442 19.96196058050573 A38 38 0 0 1 -34.796463146637215 15.271088778627341 L-34.796463146637215 15.271088778627341 L-44.505881320897736 17.664245421502923 L-47.61698495663599 5.042001794964251 L-37.90756678237547 2.6488451520886693 A38 38 0 0 1 -37.907566782375476 -2.6488451520886436 L-37.907566782375476 -2.6488451520886436 L-47.616984956635996 -5.042001794964218 L-44.50588132089775 -17.664245421502894 L-34.79646314663723 -15.271088778627318 A38 38 0 0 1 -32.334503703974434 -19.961960580505707 L-32.334503703974434 -19.961960580505707 L-39.819611185685446 -26.593187162913658 L-31.1990166285551 -36.32382688913798 L-23.713909146844088 -29.692600306730032 A38 38 0 0 1 -19.353995500004917 -32.7020314076326 L-19.353995500004917 -32.7020314076326 L-22.900044370430276 -42.05219383448675 L-10.744833215519888 -46.66205736603972 L-7.198784345094528 -37.31189493918557 A38 38 0 0 1 -1.9397201679145073 -37.95046094147192 L-1.9397201679145073 -37.95046094147192 L-0.7343533653612839 -47.877549682452454 L12.170861997913416 -46.31057283913327 L10.965495195360193 -36.38348409815273 A38 38 0 0 1 15.918921678483033 -34.5048972262536 L15.918921678483033 -34.5048972262536 L21.59956914579459 -42.73473588519016 L32.298359402412125 -35.34989417768514 L26.617711935100566 -27.120055518748572 A38 38 0 0 1 30.1307304121431 -23.15467738559004 L30.1307304121431 -23.15467738559004 L38.9852906686752 -27.801909106027733 L45.0266919052442 -16.29098077253601 L36.1721316487121 -11.643749052098318 A38 38 0 0 1 37.43995192304605 -6.500000000000007 M0 -20A20 20 0 1 0 0 20 A20 20 0 1 0 0 -20" fill="#fdfdfd"></path></g></g></svg>